<svg version="1.1" id="Layer_1" xmlns="http://www.w3.org/2000/svg" xmlns:xlink="http://www.w3.org/1999/xlink" x="0px" y="0px"
	 width="100%" viewBox="0 0 3072 3072" enable-background="new 0 0 3072 3072" xml:space="preserve">
<path fill="#428FF2" opacity="1.000000" stroke="none" 
	d="
M3074.000000,596.000000 
	C3074.000000,1223.392090 3074.000000,1850.784180 3073.254883,2478.510254 
	C3071.679443,2480.541504 3070.286621,2482.190674 3070.136719,2483.946045 
	C3069.828857,2487.559082 3070.744385,2491.320801 3070.164551,2494.858643 
	C3068.394043,2505.657471 3065.865479,2516.333740 3064.155029,2527.140381 
	C3060.578613,2549.738037 3054.410645,2571.659668 3048.647949,2593.765869 
	C3039.303223,2629.614258 3024.468506,2663.226562 3010.083008,2697.061523 
	C3005.875244,2706.958496 2999.731689,2716.043457 2994.342773,2725.424316 
	C2985.573486,2740.690918 2977.137695,2756.173096 2967.772461,2771.068115 
	C2947.577881,2803.185547 2924.088867,2832.897217 2898.229248,2860.563965 
	C2878.784912,2881.367676 2858.649170,2901.625732 2836.071045,2919.187256 
	C2821.679932,2930.380859 2807.453857,2941.806885 2792.732178,2952.551025 
	C2758.591553,2977.467285 2722.207031,2998.665283 2683.462891,3015.553955 
	C2662.775879,3024.571045 2641.692383,3032.752686 2620.490967,3040.498047 
	C2594.780273,3049.890381 2568.137207,3056.190674 2541.417480,3061.966064 
	C2531.879395,3064.028320 2522.018555,3064.553955 2512.355469,3066.096191 
	C2503.985107,3067.431885 2495.632080,3068.986572 2487.391113,3070.947266 
	C2485.139404,3071.483154 2486.068359,3073.278320 2488.000000,3074.000000 
	C1857.941284,3074.000000 1227.882568,3074.000000 597.502808,3073.293457 
	C595.744141,3071.857422 594.369751,3070.686279 592.858643,3070.469482 
	C582.404846,3068.971436 571.906494,3067.784668 561.452698,3066.287109 
	C529.793518,3061.751465 498.906769,3053.942139 468.410553,3044.401855 
	C424.538147,3030.677002 382.735809,3012.281006 342.631653,2989.846436 
	C300.043793,2966.022217 260.445557,2937.935547 224.400558,2905.169678 
	C195.645126,2879.030762 168.655350,2851.038818 144.730591,2820.239258 
	C121.987663,2790.960449 101.576073,2760.173584 83.798424,2727.653320 
	C58.232887,2680.885986 38.537922,2631.730225 24.907272,2580.214844 
	C18.252123,2555.062012 12.735795,2529.625244 9.750206,2503.726807 
	C8.199089,2490.271729 7.037930,2476.770996 5.433752,2463.322754 
	C5.287422,2462.096191 3.190898,2461.102051 1.999986,2460.000000 
	C2.000000,1841.941284 2.000000,1223.882568 2.393165,605.966675 
	C3.832965,604.808899 5.599427,603.616943 5.814709,602.190857 
	C7.929321,588.182800 9.706095,574.124329 11.732295,560.102295 
	C15.888332,531.341064 22.730204,503.174591 31.128914,475.393280 
	C45.973618,426.289825 66.087555,379.475433 91.895638,335.072632 
	C114.396797,296.359344 139.999084,259.914062 170.064850,226.738785 
	C184.792969,210.487427 199.600327,194.135147 215.880890,179.508209 
	C235.216232,162.136749 255.580597,145.755844 276.597870,130.455063 
	C297.397156,115.312973 319.140137,101.334648 341.273438,88.201218 
	C357.666046,78.474167 375.119507,70.416016 392.517212,62.534531 
	C410.480164,54.396954 428.616486,46.390614 447.275574,40.103432 
	C471.649139,31.890745 496.547272,25.193659 521.353333,18.327320 
	C530.356201,15.835320 539.739258,14.708619 548.957397,13.005305 
	C555.133301,11.864126 561.294312,10.577435 567.514954,9.756866 
	C579.559082,8.168085 591.649536,6.928985 603.692627,5.332942 
	C604.856934,5.178642 608.419678,5.269569 606.000000,2.000000 
	C1228.058716,2.000000 1850.117554,2.000000 2472.377441,2.600843 
	C2477.733887,4.801227 2482.788818,7.049122 2488.065430,7.867455 
	C2499.606201,9.657203 2511.342773,10.237674 2522.843506,12.216458 
	C2534.558594,14.232085 2546.010986,17.754955 2557.714844,19.857410 
	C2575.129395,22.985689 2591.935547,28.220322 2608.778809,33.394848 
	C2632.190918,40.587452 2655.220459,48.834053 2677.244385,59.605774 
	C2699.672119,70.574989 2722.450928,80.982651 2744.095459,93.351852 
	C2764.229492,104.857712 2783.592041,117.911148 2802.335449,131.596329 
	C2820.642822,144.963089 2838.491943,159.166077 2855.208252,174.459915 
	C2890.208740,206.481583 2922.397705,241.109985 2949.949951,279.989441 
	C2965.881348,302.470337 2981.322998,325.308411 2994.130371,349.561646 
	C3005.809814,371.678772 3017.294922,394.036652 3026.245361,417.588898 
	C3039.265381,451.849518 3051.441406,486.227325 3058.616699,522.352051 
	C3062.197754,540.381897 3066.671631,558.187622 3068.093994,576.583618 
	C3068.519775,582.087219 3069.306885,587.569031 3070.109131,593.034241 
	C3070.403320,595.038513 3070.516113,597.902954 3074.000000,596.000000 
M1641.001099,1419.828369 
	C1630.008667,1419.875610 1618.976440,1419.348389 1608.033691,1420.109863 
	C1593.045898,1421.152588 1585.846802,1430.066284 1584.188965,1441.810913 
	C1583.725952,1445.090942 1583.685791,1448.450195 1583.685303,1451.773193 
	C1583.662720,1616.009888 1583.658569,1780.246460 1583.702881,1944.483154 
	C1583.704102,1949.130127 1583.986694,1953.812866 1584.610962,1958.414795 
	C1585.474365,1964.780029 1595.315308,1975.192993 1601.424438,1975.708618 
	C1609.029907,1976.350952 1616.747192,1976.739502 1624.341797,1976.196899 
	C1636.867554,1975.301758 1646.528687,1965.789917 1648.414917,1953.262329 
	C1648.956909,1949.663208 1648.965332,1945.961792 1648.968750,1942.307007 
	C1649.005493,1903.663086 1648.991821,1865.019287 1648.991943,1826.375366 
	C1648.991943,1822.807373 1648.991943,1819.239258 1648.991943,1814.602295 
	C1653.404419,1814.602295 1656.647827,1814.602295 1659.891357,1814.602173 
	C1686.542358,1814.601440 1713.193237,1814.630493 1739.844238,1814.592163 
	C1774.096924,1814.542847 1806.185181,1806.229004 1835.904175,1789.113281 
	C1910.491089,1746.157227 1945.896973,1662.822510 1931.343018,1581.166260 
	C1922.792358,1533.191772 1898.933716,1493.312134 1860.904419,1462.719116 
	C1826.051270,1434.681519 1785.695801,1420.544189 1740.941650,1419.921387 
	C1708.300537,1419.467163 1675.647949,1419.829834 1641.001099,1419.828369 
M552.132141,1772.584351 
	C578.562561,1775.245483 604.847351,1773.548218 630.652466,1767.830322 
	C715.038147,1749.131714 770.383423,1698.325195 796.565613,1615.893921 
	C797.336853,1613.465820 797.558350,1610.863159 798.175415,1607.607544 
	C764.693481,1598.079102 731.838074,1588.729126 698.383667,1579.208618 
	C696.727600,1583.477905 695.470642,1586.837524 694.127502,1590.162354 
	C678.263000,1629.435669 649.974121,1654.394775 608.589294,1664.089600 
	C589.225037,1668.625854 569.629639,1669.454468 550.037170,1665.936523 
	C506.725555,1658.159790 473.252869,1635.947021 453.122101,1596.346680 
	C432.702057,1556.177246 432.313049,1514.015625 446.162537,1471.960571 
	C459.638947,1431.038574 487.939362,1403.822021 528.678284,1389.729980 
	C550.868225,1382.054321 573.680725,1380.537476 596.747192,1384.257812 
	C643.202332,1391.750732 675.326538,1416.811401 690.720154,1461.982666 
	C691.565308,1464.462891 692.476562,1466.920532 693.757141,1470.510132 
	C726.627014,1460.153076 759.165771,1449.900391 792.568054,1439.375610 
	C791.241821,1434.129395 790.390503,1429.616699 788.964478,1425.293579 
	C768.501709,1363.254639 728.048340,1319.802612 667.161926,1296.058350 
	C625.947998,1279.985962 582.932312,1275.937500 539.342834,1281.925293 
	C458.851959,1292.982178 397.458130,1333.466675 357.780151,1404.754395 
	C329.346527,1455.839966 322.430237,1511.226196 330.492279,1568.483032 
	C346.413483,1681.555176 436.085571,1764.399902 552.132141,1772.584351 
M2680.544678,1459.559692 
	C2699.313965,1437.460938 2718.018799,1415.306763 2736.911621,1393.314209 
	C2740.335693,1389.328613 2742.170654,1385.363403 2742.119385,1379.916992 
	C2741.866211,1352.922852 2742.025391,1325.925049 2741.972656,1298.928589 
	C2741.967041,1296.066406 2741.529053,1293.204956 2741.306885,1290.531006 
	C2721.919678,1288.405151 2386.129150,1289.332397 2378.789062,1291.496094 
	C2378.789062,1323.947388 2378.789062,1356.468750 2378.789062,1390.323730 
	C2450.997314,1390.323730 2522.683105,1390.323730 2596.843506,1390.323730 
	C2589.968506,1398.633911 2584.792725,1404.987549 2579.514648,1411.255127 
	C2511.034180,1492.573120 2442.567871,1573.902832 2373.973877,1655.124634 
	C2370.112061,1659.697266 2368.052979,1664.158569 2368.118896,1670.324951 
	C2368.420166,1698.651367 2368.230713,1726.982910 2368.292969,1755.312500 
	C2368.298584,1757.846558 2368.848389,1760.379395 2369.161133,1763.048950 
	C2494.356689,1763.048950 2618.847168,1763.048950 2743.207275,1763.048950 
	C2745.480713,1752.048706 2745.037354,1670.475586 2742.522461,1662.436157 
	C2729.866211,1662.436157 2716.924316,1662.436157 2703.982666,1662.436157 
	C2690.984375,1662.436157 2677.985840,1662.436157 2664.987549,1662.436157 
	C2652.322510,1662.436157 2639.657471,1662.436157 2626.992432,1662.436157 
	C2613.994141,1662.436157 2600.995605,1662.436157 2587.997314,1662.436157 
	C2574.999023,1662.436157 2562.000000,1662.523682 2549.002686,1662.411133 
	C2536.266846,1662.300781 2523.489990,1662.900879 2510.356934,1662.023560 
	C2511.037842,1660.046143 2511.090088,1659.317139 2511.471436,1658.867188 
	C2567.514893,1592.785400 2623.582275,1526.723877 2680.544678,1459.559692 
M817.557007,1580.357788 
	C817.643066,1592.649658 816.692993,1605.052246 817.991699,1617.214722 
	C824.109009,1674.505737 851.075806,1719.218872 900.842896,1748.960449 
	C936.054565,1770.003540 974.651794,1777.348389 1015.204834,1772.104004 
	C1083.734009,1763.241699 1132.385254,1727.527588 1157.987305,1662.680786 
	C1169.311279,1633.998413 1172.115845,1603.929443 1168.156128,1573.294922 
	C1161.372559,1520.814453 1137.079224,1478.847290 1092.484253,1449.748169 
	C1052.711060,1423.795288 1008.708252,1416.908569 962.276306,1423.841675 
	C883.311768,1435.632812 823.988708,1499.263062 817.557007,1580.357788 
M1993.813721,1657.173096 
	C2009.617065,1703.004395 2039.446167,1736.449463 2083.313477,1756.888672 
	C2115.151611,1771.723145 2148.830811,1776.574829 2183.706299,1772.084595 
	C2239.223389,1764.936646 2282.899658,1738.703735 2312.177002,1690.489258 
	C2332.940674,1656.295654 2339.827148,1618.699341 2336.128174,1579.140015 
	C2331.057129,1524.907227 2307.496094,1480.518799 2261.365479,1450.930542 
	C2203.683838,1413.933472 2142.169922,1411.135254 2080.272461,1439.488281 
	C2034.834717,1460.301758 2005.578003,1496.463013 1991.568726,1544.503540 
	C1980.733643,1581.659424 1981.573120,1618.787598 1993.813721,1657.173096 
M1529.847290,1603.000000 
	C1529.847290,1546.129517 1529.847290,1489.259033 1529.847290,1432.634033 
	C1516.499268,1430.509277 1436.247803,1431.052979 1428.152710,1433.333862 
	C1428.152710,1436.999023 1428.153564,1440.933838 1428.152588,1444.868530 
	C1428.138428,1503.866333 1428.345703,1562.865356 1428.020874,1621.861450 
	C1427.844360,1653.931274 1408.315552,1675.011230 1376.739990,1677.067627 
	C1346.769775,1679.019409 1326.899902,1663.547974 1321.160400,1636.444458 
	C1319.659302,1629.356079 1319.515381,1621.887817 1319.499146,1614.592407 
	C1319.372192,1557.594727 1319.439575,1500.596680 1319.403198,1443.598755 
	C1319.400757,1439.777710 1319.041504,1435.956787 1318.861206,1432.394897 
	C1301.323608,1430.155762 1225.078735,1431.001465 1218.083252,1433.406982 
	C1217.968750,1435.627930 1217.745728,1437.938599 1217.745483,1440.249146 
	C1217.735107,1507.579956 1217.660156,1574.911133 1217.859375,1642.241333 
	C1217.885864,1651.192871 1218.570312,1660.282959 1220.236450,1669.064819 
	C1228.122803,1710.634155 1249.614258,1742.234253 1289.006104,1759.998413 
	C1312.783691,1770.721191 1337.962646,1772.838013 1363.440063,1769.452148 
	C1388.840942,1766.076294 1411.776489,1756.909790 1428.707642,1736.346069 
	C1429.401123,1735.503662 1430.647461,1735.116577 1432.335205,1734.093750 
	C1433.490112,1744.374878 1434.545898,1753.773682 1435.600464,1763.161865 
	C1468.524414,1763.161865 1500.061279,1763.161865 1532.651367,1763.161865 
	C1527.969604,1710.132812 1530.483154,1657.548950 1529.847290,1603.000000 
M1083.205933,2173.851562 
	C1080.875732,2173.853271 1078.545166,2173.825928 1076.215576,2173.861816 
	C1064.391602,2174.042969 1062.045288,2176.307129 1061.804688,2187.746094 
	C1061.776611,2189.077148 1061.790894,2190.409180 1061.790894,2191.740723 
	C1061.790527,2247.998779 1061.789917,2304.257080 1061.793091,2360.515137 
	C1061.793213,2362.845215 1061.701538,2365.184570 1061.871460,2367.503662 
	C1062.412598,2374.890381 1065.075073,2378.158203 1072.250000,2378.199707 
	C1094.547729,2378.327881 1116.937622,2379.220459 1139.127197,2377.583496 
	C1176.854858,2374.800049 1198.581909,2350.110107 1196.190674,2314.457764 
	C1194.877686,2294.882080 1184.956055,2280.759277 1167.158447,2272.311035 
	C1164.859131,2271.219727 1162.497559,2270.259766 1159.227539,2268.828613 
	C1161.984009,2266.638184 1163.916626,2264.915283 1166.029297,2263.452148 
	C1191.554443,2245.773193 1191.353516,2192.831787 1154.291748,2179.624512 
	C1145.356079,2176.440186 1135.585815,2174.830811 1126.084473,2174.183838 
	C1112.496826,2173.258789 1098.803467,2173.886719 1083.205933,2173.851562 
M1846.286743,2381.319824 
	C1858.582764,2378.578125 1870.927979,2376.033691 1883.148071,2372.987549 
	C1887.416138,2371.923584 1891.512817,2369.305908 1891.540161,2364.240234 
	C1891.564209,2359.787842 1890.378174,2355.329102 1889.726440,2350.873047 
	C1885.961548,2351.455811 1881.939331,2351.381104 1878.476318,2352.735596 
	C1863.974121,2358.408447 1849.090210,2361.207275 1833.529663,2359.938477 
	C1807.182739,2357.790039 1790.286499,2335.509277 1795.734375,2308.535645 
	C1799.025513,2308.535645 1802.586792,2308.537354 1806.148193,2308.535400 
	C1832.451782,2308.521240 1858.756104,2308.609619 1885.058716,2308.439209 
	C1894.800171,2308.375977 1898.332397,2305.372559 1897.793213,2296.025146 
	C1897.165649,2285.144531 1896.446167,2273.919678 1893.278687,2263.608398 
	C1886.739380,2242.321777 1871.239746,2229.964111 1849.362915,2226.308594 
	C1842.224609,2225.115723 1834.718262,2225.072021 1827.483887,2225.698975 
	C1801.924683,2227.914062 1783.622559,2241.106201 1774.227051,2264.837646 
	C1763.910522,2290.895996 1764.207275,2317.627686 1773.939087,2343.894287 
	C1780.079102,2360.466797 1792.253296,2371.398926 1808.996094,2377.061768 
	C1820.493042,2380.950439 1832.378296,2382.067139 1846.286743,2381.319824 
M1356.986938,2287.000244 
	C1356.993896,2279.668213 1357.007935,2272.335938 1357.006470,2265.003906 
	C1357.004395,2255.338867 1356.937500,2245.673828 1357.003784,2236.009277 
	C1357.035156,2231.442627 1355.702515,2227.763428 1350.526855,2227.825684 
	C1343.878296,2227.905518 1336.425293,2224.666260 1331.116333,2231.515869 
	C1330.413330,2232.422852 1330.583130,2234.082520 1330.531006,2235.401123 
	C1330.438843,2237.730469 1330.478882,2240.065918 1330.477661,2242.398682 
	C1330.464722,2269.727295 1330.568848,2297.056885 1330.308838,2324.383301 
	C1330.273315,2328.111084 1329.493164,2332.774658 1327.200073,2335.352539 
	C1321.487305,2341.775879 1315.306885,2348.136963 1308.234497,2352.929932 
	C1288.338501,2366.412842 1266.333374,2356.933350 1262.093750,2333.374268 
	C1260.862305,2326.530762 1260.445923,2319.466797 1260.390503,2312.498047 
	C1260.191528,2287.504150 1260.359497,2262.507080 1260.275513,2237.511719 
	C1260.246704,2228.914062 1259.186646,2227.968018 1250.508423,2227.467529 
	C1248.846924,2227.371582 1247.175537,2227.371582 1245.511108,2227.418457 
	C1235.160400,2227.710693 1234.108154,2228.691406 1234.093872,2238.953613 
	C1234.055908,2266.282227 1233.970337,2293.612061 1234.205200,2320.938721 
	C1234.265015,2327.898438 1234.961304,2334.936768 1236.199341,2341.788086 
	C1241.272339,2369.859863 1264.458008,2385.624268 1292.703735,2380.787109 
	C1305.356079,2378.620117 1315.669434,2372.285400 1325.046631,2363.969482 
	C1327.064453,2362.179932 1329.205444,2360.528564 1333.142212,2357.289307 
	C1333.142212,2363.774170 1332.867432,2367.748291 1333.251953,2371.657471 
	C1333.461182,2373.784912 1334.218018,2376.884033 1335.716187,2377.676270 
	C1341.259277,2380.608154 1347.386475,2380.421143 1353.176025,2378.282715 
	C1358.716675,2376.236572 1356.912354,2371.020020 1356.933716,2366.986572 
	C1357.071289,2340.991943 1356.993164,2314.996094 1356.986938,2287.000244 
M1632.307983,2287.479248 
	C1632.938599,2282.637939 1632.077393,2276.810059 1634.496338,2273.151123 
	C1640.370972,2264.264893 1648.249634,2256.859619 1657.823120,2251.747070 
	C1675.724487,2242.187012 1693.881714,2249.602295 1699.906494,2268.934814 
	C1701.083130,2272.710449 1701.782593,2276.713379 1702.096313,2280.659912 
	C1702.544189,2286.291748 1702.533081,2291.967773 1702.543457,2297.625488 
	C1702.586792,2321.264160 1702.507080,2344.902832 1702.596436,2368.541260 
	C1702.630005,2377.416016 1704.136475,2378.873291 1712.916260,2379.531250 
	C1714.572144,2379.655273 1716.247314,2379.661621 1717.906372,2379.577148 
	C1727.518066,2379.088135 1728.773560,2377.908447 1728.792114,2368.302734 
	C1728.844971,2341.001953 1728.998901,2313.698486 1728.637329,2286.402344 
	C1728.523438,2277.811279 1727.785522,2269.029785 1725.800049,2260.700928 
	C1720.771118,2239.604004 1705.510010,2227.258545 1683.997192,2225.371094 
	C1666.977173,2223.878174 1652.741699,2229.889893 1640.061279,2240.755615 
	C1637.257080,2243.158691 1635.195923,2246.968506 1629.911621,2247.415771 
	C1629.911621,2242.870117 1629.828003,2238.923584 1629.932739,2234.981934 
	C1630.067627,2229.906982 1627.379761,2227.744629 1622.629028,2227.562256 
	C1620.634033,2227.485352 1618.634888,2227.368408 1616.641602,2227.420898 
	C1607.371582,2227.665039 1606.241211,2228.710449 1606.153442,2237.747559 
	C1606.053223,2248.067627 1606.125732,2258.389404 1606.125977,2268.710449 
	C1606.126831,2302.004150 1606.093262,2335.297852 1606.154297,2368.591553 
	C1606.170776,2377.554443 1607.514648,2378.869141 1616.372681,2379.530273 
	C1618.028442,2379.654053 1619.703857,2379.655518 1621.362793,2379.569092 
	C1630.778442,2379.080566 1632.244263,2377.663330 1632.268188,2368.278076 
	C1632.335083,2341.976074 1632.301758,2315.674072 1632.307983,2287.479248 
M2011.327271,2231.578613 
	C1997.617310,2225.053955 1983.168091,2223.926514 1968.404907,2226.142822 
	C1948.016724,2229.203125 1933.233887,2242.703613 1930.314331,2260.494629 
	C1927.109985,2280.021729 1935.778931,2295.427490 1955.947021,2305.298340 
	C1962.805298,2308.654785 1970.109131,2311.090088 1977.051636,2314.288818 
	C1982.465698,2316.783447 1987.994385,2319.298828 1992.833252,2322.711182 
	C2000.735840,2328.283691 2003.129517,2336.821289 1999.854004,2345.644043 
	C1996.261108,2355.321289 1988.083008,2358.691406 1978.762817,2359.970459 
	C1965.036499,2361.854004 1952.378540,2358.467773 1940.415527,2351.790527 
	C1937.053345,2349.913818 1933.452881,2348.464111 1930.051025,2346.860596 
	C1922.983276,2358.963135 1925.402100,2369.117188 1936.491577,2374.039795 
	C1957.832153,2383.512695 1979.720459,2384.779053 2001.414062,2375.576416 
	C2018.007446,2368.537354 2026.403198,2355.239990 2027.034912,2337.232422 
	C2027.640991,2319.952881 2019.114868,2308.072266 2004.171997,2300.596680 
	C1996.157349,2296.587402 1987.596313,2293.683350 1979.478271,2289.863525 
	C1973.494995,2287.047607 1967.474731,2284.054199 1962.116211,2280.234863 
	C1955.920166,2275.818359 1953.866333,2269.197510 1955.452515,2261.636475 
	C1957.265503,2252.994873 1963.785278,2247.447266 1973.923218,2246.036133 
	C1985.500732,2244.424072 1996.426636,2246.566162 2006.793823,2251.884766 
	C2009.931274,2253.494629 2013.158325,2254.929443 2016.285034,2256.416016 
	C2022.174072,2245.583740 2020.979736,2238.831787 2011.327271,2231.578613 
M1414.727539,2300.334229 
	C1424.661621,2304.954346 1434.711182,2309.345215 1444.488770,2314.275635 
	C1450.962524,2317.540283 1457.828857,2320.706787 1463.128906,2325.465576 
	C1471.978394,2333.411621 1470.253174,2348.576660 1460.121948,2354.838135 
	C1455.754272,2357.537842 1450.367188,2359.174561 1445.240723,2359.943359 
	C1432.639160,2361.833496 1420.794556,2358.774414 1409.693604,2352.663086 
	C1406.782104,2351.060059 1403.905396,2349.362305 1400.876953,2348.012451 
	C1397.954346,2346.709961 1395.726562,2347.720459 1394.529175,2350.791260 
	C1390.939819,2359.996826 1394.744629,2369.951904 1403.967041,2374.109619 
	C1417.895142,2380.388672 1432.622070,2383.362793 1447.757202,2380.886475 
	C1456.489868,2379.457764 1465.525269,2377.207275 1473.299438,2373.164062 
	C1488.210083,2365.408691 1494.494629,2351.965088 1494.407349,2335.195557 
	C1494.325562,2319.471680 1486.702637,2308.569824 1473.323486,2301.613525 
	C1464.496338,2297.023926 1454.953491,2293.829346 1445.993652,2289.470459 
	C1439.770508,2286.442627 1433.195068,2283.368408 1428.185425,2278.778076 
	C1418.091797,2269.528809 1421.239746,2253.862793 1433.753662,2248.262695 
	C1436.725464,2246.932617 1440.108032,2246.291016 1443.370605,2245.881104 
	C1454.649414,2244.463379 1465.169434,2247.114258 1475.160645,2252.301514 
	C1477.991577,2253.771240 1480.917725,2255.058105 1483.747437,2256.403564 
	C1490.497437,2243.801025 1488.101074,2235.327148 1476.583252,2230.575684 
	C1460.310669,2223.863281 1443.512085,2223.059082 1426.773926,2228.527588 
	C1411.862427,2233.398926 1401.217163,2243.090820 1398.229492,2259.022705 
	C1395.166260,2275.357422 1399.545776,2289.382324 1414.727539,2300.334229 
M2121.115967,2295.951172 
	C2111.979980,2291.952637 2102.674072,2288.294434 2093.767578,2283.837402 
	C2087.697754,2280.799805 2082.925537,2276.073730 2081.914795,2268.736328 
	C2080.337891,2257.284912 2087.226074,2248.271973 2099.477295,2246.234863 
	C2111.349365,2244.260742 2122.656006,2246.235352 2133.350098,2251.823242 
	C2136.483887,2253.460693 2139.778564,2254.790039 2142.928467,2256.228271 
	C2148.561768,2246.195312 2147.500732,2237.124512 2140.353516,2232.847656 
	C2124.438232,2223.323486 2090.358887,2220.291748 2070.391846,2237.017090 
	C2052.115967,2252.325684 2051.335449,2281.567627 2069.767578,2296.655518 
	C2076.824219,2302.431885 2085.693604,2306.089844 2093.968262,2310.252930 
	C2100.787354,2313.683350 2108.201172,2315.967529 2114.898438,2319.595459 
	C2125.552490,2325.366699 2129.318848,2332.674316 2127.637207,2342.142090 
	C2125.981201,2351.463135 2118.505371,2357.922852 2107.148682,2359.780518 
	C2105.510986,2360.048340 2103.835938,2360.087158 2102.179443,2360.243164 
	C2089.037109,2361.480469 2077.240967,2357.446289 2065.965088,2351.161133 
	C2062.653320,2349.314697 2059.587158,2345.904785 2055.162842,2348.367188 
	C2050.078613,2364.471924 2052.799316,2370.589355 2068.096191,2376.175293 
	C2081.416016,2381.038818 2095.252686,2383.477539 2109.284912,2380.558838 
	C2117.637939,2378.821289 2126.252197,2376.524902 2133.684814,2372.510254 
	C2158.114990,2359.313232 2163.484863,2317.780518 2133.214355,2301.869629 
	C2129.681396,2300.012451 2126.080566,2298.284424 2121.115967,2295.951172 
M1532.421631,2375.527832 
	C1535.315918,2379.739990 1539.826782,2379.444580 1544.088867,2379.555908 
	C1556.279053,2379.875000 1558.034424,2378.195068 1558.040039,2366.325684 
	C1558.059814,2325.085205 1558.052124,2283.844971 1558.045776,2242.604492 
	C1558.043579,2227.847168 1556.962158,2226.829102 1542.203857,2227.524414 
	C1533.048340,2227.955811 1531.942749,2228.930176 1531.939697,2238.097656 
	C1531.924194,2283.328125 1531.998901,2328.558594 1532.421631,2375.527832 
M1528.640869,2183.250488 
	C1528.398682,2195.010986 1531.241943,2200.916504 1548.443970,2199.770752 
	C1549.106445,2199.726807 1549.771606,2199.645508 1550.422485,2199.516113 
	C1555.788818,2198.451904 1559.727295,2195.843506 1560.343628,2189.922119 
	C1561.030640,2183.320557 1562.678101,2176.004150 1556.424316,2171.420166 
	C1550.431152,2167.027344 1543.173950,2167.753662 1536.242676,2169.840088 
	C1530.370728,2171.607910 1529.521362,2176.627686 1528.640869,2183.250488 
z"/>
<path fill="#000001" opacity="1.000000" stroke="none" 
	d="
M605.062683,2.000000 
	C608.419678,5.269569 604.856934,5.178642 603.692627,5.332942 
	C591.649536,6.928985 579.559082,8.168085 567.514954,9.756866 
	C561.294312,10.577435 555.133301,11.864126 548.957397,13.005305 
	C539.739258,14.708619 530.356201,15.835320 521.353333,18.327320 
	C496.547272,25.193659 471.649139,31.890745 447.275574,40.103432 
	C428.616486,46.390614 410.480164,54.396954 392.517212,62.534531 
	C375.119507,70.416016 357.666046,78.474167 341.273438,88.201218 
	C319.140137,101.334648 297.397156,115.312973 276.597870,130.455063 
	C255.580597,145.755844 235.216232,162.136749 215.880890,179.508209 
	C199.600327,194.135147 184.792969,210.487427 170.064850,226.738785 
	C139.999084,259.914062 114.396797,296.359344 91.895638,335.072632 
	C66.087555,379.475433 45.973618,426.289825 31.128914,475.393280 
	C22.730204,503.174591 15.888332,531.341064 11.732295,560.102295 
	C9.706095,574.124329 7.929321,588.182800 5.814709,602.190857 
	C5.599427,603.616943 3.832965,604.808899 2.393165,605.054749 
	C2.000000,403.478973 2.000000,202.957932 2.000000,2.000000 
	C202.708237,2.000000 403.416809,2.000000 605.062683,2.000000 
z"/>
<path fill="#000001" opacity="1.000000" stroke="none" 
	d="
M1.999986,2460.937256 
	C3.190898,2461.102051 5.287422,2462.096191 5.433752,2463.322754 
	C7.037930,2476.770996 8.199089,2490.271729 9.750206,2503.726807 
	C12.735795,2529.625244 18.252123,2555.062012 24.907272,2580.214844 
	C38.537922,2631.730225 58.232887,2680.885986 83.798424,2727.653320 
	C101.576073,2760.173584 121.987663,2790.960449 144.730591,2820.239258 
	C168.655350,2851.038818 195.645126,2879.030762 224.400558,2905.169678 
	C260.445557,2937.935547 300.043793,2966.022217 342.631653,2989.846436 
	C382.735809,3012.281006 424.538147,3030.677002 468.410553,3044.401855 
	C498.906769,3053.942139 529.793518,3061.751465 561.452698,3066.287109 
	C571.906494,3067.784668 582.404846,3068.971436 592.858643,3070.469482 
	C594.369751,3070.686279 595.744141,3071.857422 596.590881,3073.293457 
	C398.143433,3074.000000 200.286880,3074.000000 2.000000,3074.000000 
	C2.000000,2869.958252 2.000000,2665.916504 1.999986,2460.937256 
z"/>
<path fill="#000101" opacity="1.000000" stroke="none" 
	d="
M3074.000000,595.062683 
	C3070.516113,597.902954 3070.403320,595.038513 3070.109131,593.034241 
	C3069.306885,587.569031 3068.519775,582.087219 3068.093994,576.583618 
	C3066.671631,558.187622 3062.197754,540.381897 3058.616699,522.352051 
	C3051.441406,486.227325 3039.265381,451.849518 3026.245361,417.588898 
	C3017.294922,394.036652 3005.809814,371.678772 2994.130371,349.561646 
	C2981.322998,325.308411 2965.881348,302.470337 2949.949951,279.989441 
	C2922.397705,241.109985 2890.208740,206.481583 2855.208252,174.459915 
	C2838.491943,159.166077 2820.642822,144.963089 2802.335449,131.596329 
	C2783.592041,117.911148 2764.229492,104.857712 2744.095459,93.351852 
	C2722.450928,80.982651 2699.672119,70.574989 2677.244385,59.605774 
	C2655.220459,48.834053 2632.190918,40.587452 2608.778809,33.394848 
	C2591.935547,28.220322 2575.129395,22.985689 2557.714844,19.857410 
	C2546.010986,17.754955 2534.558594,14.232085 2522.843506,12.216458 
	C2511.342773,10.237674 2499.606201,9.657203 2488.065430,7.867455 
	C2482.788818,7.049122 2477.733887,4.801227 2473.289062,2.600843 
	C2673.853271,2.000000 2873.706787,2.000000 3074.000000,2.000000 
	C3074.000000,199.374908 3074.000000,396.750122 3074.000000,595.062683 
z"/>
<path fill="#000101" opacity="1.000000" stroke="none" 
	d="
M2488.937256,3074.000000 
	C2486.068359,3073.278320 2485.139404,3071.483154 2487.391113,3070.947266 
	C2495.632080,3068.986572 2503.985107,3067.431885 2512.355469,3066.096191 
	C2522.018555,3064.553955 2531.879395,3064.028320 2541.417480,3061.966064 
	C2568.137207,3056.190674 2594.780273,3049.890381 2620.490967,3040.498047 
	C2641.692383,3032.752686 2662.775879,3024.571045 2683.462891,3015.553955 
	C2722.207031,2998.665283 2758.591553,2977.467285 2792.732178,2952.551025 
	C2807.453857,2941.806885 2821.679932,2930.380859 2836.071045,2919.187256 
	C2858.649170,2901.625732 2878.784912,2881.367676 2898.229248,2860.563965 
	C2924.088867,2832.897217 2947.577881,2803.185547 2967.772461,2771.068115 
	C2977.137695,2756.173096 2985.573486,2740.690918 2994.342773,2725.424316 
	C2999.731689,2716.043457 3005.875244,2706.958496 3010.083008,2697.061523 
	C3024.468506,2663.226562 3039.303223,2629.614258 3048.647949,2593.765869 
	C3054.410645,2571.659668 3060.578613,2549.738037 3064.155029,2527.140381 
	C3065.865479,2516.333740 3068.394043,2505.657471 3070.164551,2494.858643 
	C3070.744385,2491.320801 3069.828857,2487.559082 3070.136719,2483.946045 
	C3070.286621,2482.190674 3071.679443,2480.541504 3073.254883,2479.421875 
	C3074.000000,2677.853027 3074.000000,2875.706299 3074.000000,3074.000000 
	C2879.291748,3074.000000 2684.583008,3074.000000 2488.937256,3074.000000 
z"/>
<path fill="#FBBC06" opacity="1.000000" stroke="none" 
	d="
M1642.000732,1419.828369 
	C1675.647949,1419.829834 1708.300537,1419.467163 1740.941650,1419.921387 
	C1785.695801,1420.544189 1826.051270,1434.681519 1860.904419,1462.719116 
	C1898.933716,1493.312134 1922.792358,1533.191772 1931.343018,1581.166260 
	C1945.896973,1662.822510 1910.491089,1746.157227 1835.904175,1789.113281 
	C1806.185181,1806.229004 1774.096924,1814.542847 1739.844238,1814.592163 
	C1713.193237,1814.630493 1686.542358,1814.601440 1659.891357,1814.602173 
	C1656.647827,1814.602295 1653.404419,1814.602295 1648.991943,1814.602295 
	C1648.991943,1819.239258 1648.991943,1822.807373 1648.991943,1826.375366 
	C1648.991821,1865.019287 1649.005493,1903.663086 1648.968750,1942.307007 
	C1648.965332,1945.961792 1648.956909,1949.663208 1648.414917,1953.262329 
	C1646.528687,1965.789917 1636.867554,1975.301758 1624.341797,1976.196899 
	C1616.747192,1976.739502 1609.029907,1976.350952 1601.424438,1975.708618 
	C1595.315308,1975.192993 1585.474365,1964.780029 1584.610962,1958.414795 
	C1583.986694,1953.812866 1583.704102,1949.130127 1583.702881,1944.483154 
	C1583.658569,1780.246460 1583.662720,1616.009888 1583.685303,1451.773193 
	C1583.685791,1448.450195 1583.725952,1445.090942 1584.188965,1441.810913 
	C1585.846802,1430.066284 1593.045898,1421.152588 1608.033691,1420.109863 
	C1618.976440,1419.348389 1630.008667,1419.875610 1642.000732,1419.828369 
M1746.970215,1600.037598 
	C1752.176636,1605.579956 1757.383057,1611.122314 1762.780884,1616.868286 
	C1761.106812,1618.892578 1759.947876,1620.491455 1758.592896,1621.901978 
	C1745.450317,1635.584961 1732.153564,1649.122192 1719.147461,1662.933472 
	C1709.117065,1673.584595 1698.863159,1684.110107 1689.776978,1695.540649 
	C1681.693237,1705.710083 1684.349487,1720.801270 1693.949219,1729.931885 
	C1702.138062,1737.720703 1719.118408,1739.803101 1727.812744,1731.353882 
	C1733.538208,1725.789551 1739.531128,1720.482910 1745.024170,1714.699829 
	C1769.091309,1689.362427 1792.992065,1663.867188 1817.009155,1638.482178 
	C1830.601074,1624.115967 1830.691162,1609.988281 1817.085693,1595.527344 
	C1801.120483,1578.558472 1785.211914,1561.535156 1769.128296,1544.679077 
	C1756.723511,1531.678467 1744.383301,1518.592651 1731.467285,1506.110596 
	C1719.130737,1494.188477 1704.236816,1494.008301 1693.343506,1504.707886 
	C1682.581421,1515.278564 1682.468262,1530.247192 1693.121582,1543.204590 
	C1695.444458,1546.029907 1697.892822,1548.762451 1700.418701,1551.408691 
	C1715.586182,1567.299194 1730.793335,1583.151855 1746.970215,1600.037598 
z"/>
<path fill="#FEFEFF" opacity="1.000000" stroke="none" 
	d="
M551.217834,1772.499512 
	C436.085571,1764.399902 346.413483,1681.555176 330.492279,1568.483032 
	C322.430237,1511.226196 329.346527,1455.839966 357.780151,1404.754395 
	C397.458130,1333.466675 458.851959,1292.982178 539.342834,1281.925293 
	C582.932312,1275.937500 625.947998,1279.985962 667.161926,1296.058350 
	C728.048340,1319.802612 768.501709,1363.254639 788.964478,1425.293579 
	C790.390503,1429.616699 791.241821,1434.129395 792.568054,1439.375610 
	C759.165771,1449.900391 726.627014,1460.153076 693.757141,1470.510132 
	C692.476562,1466.920532 691.565308,1464.462891 690.720154,1461.982666 
	C675.326538,1416.811401 643.202332,1391.750732 596.747192,1384.257812 
	C573.680725,1380.537476 550.868225,1382.054321 528.678284,1389.729980 
	C487.939362,1403.822021 459.638947,1431.038574 446.162537,1471.960571 
	C432.313049,1514.015625 432.702057,1556.177246 453.122101,1596.346680 
	C473.252869,1635.947021 506.725555,1658.159790 550.037170,1665.936523 
	C569.629639,1669.454468 589.225037,1668.625854 608.589294,1664.089600 
	C649.974121,1654.394775 678.263000,1629.435669 694.127502,1590.162354 
	C695.470642,1586.837524 696.727600,1583.477905 698.383667,1579.208618 
	C731.838074,1588.729126 764.693481,1598.079102 798.175415,1607.607544 
	C797.558350,1610.863159 797.336853,1613.465820 796.565613,1615.893921 
	C770.383423,1698.325195 715.038147,1749.131714 630.652466,1767.830322 
	C604.847351,1773.548218 578.562561,1775.245483 551.217834,1772.499512 
z"/>
<path fill="#FEFEFF" opacity="1.000000" stroke="none" 
	d="
M2680.096680,1460.110596 
	C2623.582275,1526.723877 2567.514893,1592.785400 2511.471436,1658.867188 
	C2511.090088,1659.317139 2511.037842,1660.046143 2510.356934,1662.023560 
	C2523.489990,1662.900879 2536.266846,1662.300781 2549.002686,1662.411133 
	C2562.000000,1662.523682 2574.999023,1662.436157 2587.997314,1662.436157 
	C2600.995605,1662.436157 2613.994141,1662.436157 2626.992432,1662.436157 
	C2639.657471,1662.436157 2652.322510,1662.436157 2664.987549,1662.436157 
	C2677.985840,1662.436157 2690.984375,1662.436157 2703.982666,1662.436157 
	C2716.924316,1662.436157 2729.866211,1662.436157 2742.522461,1662.436157 
	C2745.037354,1670.475586 2745.480713,1752.048706 2743.207275,1763.048950 
	C2618.847168,1763.048950 2494.356689,1763.048950 2369.161133,1763.048950 
	C2368.848389,1760.379395 2368.298584,1757.846558 2368.292969,1755.312500 
	C2368.230713,1726.982910 2368.420166,1698.651367 2368.118896,1670.324951 
	C2368.052979,1664.158569 2370.112061,1659.697266 2373.973877,1655.124634 
	C2442.567871,1573.902832 2511.034180,1492.573120 2579.514648,1411.255127 
	C2584.792725,1404.987549 2589.968506,1398.633911 2596.843506,1390.323730 
	C2522.683105,1390.323730 2450.997314,1390.323730 2378.789062,1390.323730 
	C2378.789062,1356.468750 2378.789062,1323.947388 2378.789062,1291.496094 
	C2386.129150,1289.332397 2721.919678,1288.405151 2741.306885,1290.531006 
	C2741.529053,1293.204956 2741.967041,1296.066406 2741.972656,1298.928589 
	C2742.025391,1325.925049 2741.866211,1352.922852 2742.119385,1379.916992 
	C2742.170654,1385.363403 2740.335693,1389.328613 2736.911621,1393.314209 
	C2718.018799,1415.306763 2699.313965,1437.460938 2680.096680,1460.110596 
z"/>
<path fill="#FEFEFF" opacity="1.000000" stroke="none" 
	d="
M817.627625,1579.457642 
	C823.988708,1499.263062 883.311768,1435.632812 962.276306,1423.841675 
	C1008.708252,1416.908569 1052.711060,1423.795288 1092.484253,1449.748169 
	C1137.079224,1478.847290 1161.372559,1520.814453 1168.156128,1573.294922 
	C1172.115845,1603.929443 1169.311279,1633.998413 1157.987305,1662.680786 
	C1132.385254,1727.527588 1083.734009,1763.241699 1015.204834,1772.104004 
	C974.651794,1777.348389 936.054565,1770.003540 900.842896,1748.960449 
	C851.075806,1719.218872 824.109009,1674.505737 817.991699,1617.214722 
	C816.692993,1605.052246 817.643066,1592.649658 817.627625,1579.457642 
M1061.595947,1634.259644 
	C1067.306274,1619.351196 1068.788696,1603.866333 1067.788818,1588.067505 
	C1065.137451,1546.181274 1039.022339,1518.271484 998.414551,1515.166016 
	C963.862732,1512.523560 934.551758,1531.470581 923.704468,1563.321167 
	C917.540649,1581.420044 916.758423,1599.862793 920.303772,1618.535034 
	C926.677002,1652.100952 951.241333,1675.793945 984.384216,1679.487793 
	C1016.819702,1683.102539 1047.897705,1667.679199 1061.595947,1634.259644 
z"/>
<path fill="#FEFEFF" opacity="1.000000" stroke="none" 
	d="
M1993.563843,1656.420166 
	C1981.573120,1618.787598 1980.733643,1581.659424 1991.568726,1544.503540 
	C2005.578003,1496.463013 2034.834717,1460.301758 2080.272461,1439.488281 
	C2142.169922,1411.135254 2203.683838,1413.933472 2261.365479,1450.930542 
	C2307.496094,1480.518799 2331.057129,1524.907227 2336.128174,1579.140015 
	C2339.827148,1618.699341 2332.940674,1656.295654 2312.177002,1690.489258 
	C2282.899658,1738.703735 2239.223389,1764.936646 2183.706299,1772.084595 
	C2148.830811,1776.574829 2115.151611,1771.723145 2083.313477,1756.888672 
	C2039.446167,1736.449463 2009.617065,1703.004395 1993.563843,1656.420166 
M2088.926758,1623.609375 
	C2089.738525,1626.144653 2090.478027,1628.705566 2091.372803,1631.211182 
	C2102.652832,1662.790894 2130.670166,1681.308105 2164.989990,1679.892212 
	C2197.119629,1678.566406 2223.076416,1657.715942 2231.742920,1626.081177 
	C2236.212646,1609.764282 2236.695801,1593.240967 2233.777832,1576.577393 
	C2227.338135,1539.799194 2199.911133,1516.048340 2162.311768,1514.781128 
	C2126.684082,1513.580078 2097.209229,1536.148438 2088.666016,1571.480469 
	C2084.610840,1588.250977 2084.816895,1605.150513 2088.926758,1623.609375 
z"/>
<path fill="#FEFEFF" opacity="1.000000" stroke="none" 
	d="
M1529.847168,1604.000000 
	C1530.483154,1657.548950 1527.969604,1710.132812 1532.651367,1763.161865 
	C1500.061279,1763.161865 1468.524414,1763.161865 1435.600464,1763.161865 
	C1434.545898,1753.773682 1433.490112,1744.374878 1432.335205,1734.093750 
	C1430.647461,1735.116577 1429.401123,1735.503662 1428.707642,1736.346069 
	C1411.776489,1756.909790 1388.840942,1766.076294 1363.440063,1769.452148 
	C1337.962646,1772.838013 1312.783691,1770.721191 1289.006104,1759.998413 
	C1249.614258,1742.234253 1228.122803,1710.634155 1220.236450,1669.064819 
	C1218.570312,1660.282959 1217.885864,1651.192871 1217.859375,1642.241333 
	C1217.660156,1574.911133 1217.735107,1507.579956 1217.745483,1440.249146 
	C1217.745728,1437.938599 1217.968750,1435.627930 1218.083252,1433.406982 
	C1225.078735,1431.001465 1301.323608,1430.155762 1318.861206,1432.394897 
	C1319.041504,1435.956787 1319.400757,1439.777710 1319.403198,1443.598755 
	C1319.439575,1500.596680 1319.372192,1557.594727 1319.499146,1614.592407 
	C1319.515381,1621.887817 1319.659302,1629.356079 1321.160400,1636.444458 
	C1326.899902,1663.547974 1346.769775,1679.019409 1376.739990,1677.067627 
	C1408.315552,1675.011230 1427.844360,1653.931274 1428.020874,1621.861450 
	C1428.345703,1562.865356 1428.138428,1503.866333 1428.152588,1444.868530 
	C1428.153564,1440.933838 1428.152710,1436.999023 1428.152710,1433.333862 
	C1436.247803,1431.052979 1516.499268,1430.509277 1529.847290,1432.634033 
	C1529.847290,1489.259033 1529.847290,1546.129517 1529.847168,1604.000000 
z"/>
<path fill="#FCFDFF" opacity="1.000000" stroke="none" 
	d="
M1084.180664,2173.851562 
	C1098.803467,2173.886719 1112.496826,2173.258789 1126.084473,2174.183838 
	C1135.585815,2174.830811 1145.356079,2176.440186 1154.291748,2179.624512 
	C1191.353516,2192.831787 1191.554443,2245.773193 1166.029297,2263.452148 
	C1163.916626,2264.915283 1161.984009,2266.638184 1159.227539,2268.828613 
	C1162.497559,2270.259766 1164.859131,2271.219727 1167.158447,2272.311035 
	C1184.956055,2280.759277 1194.877686,2294.882080 1196.190674,2314.457764 
	C1198.581909,2350.110107 1176.854858,2374.800049 1139.127197,2377.583496 
	C1116.937622,2379.220459 1094.547729,2378.327881 1072.250000,2378.199707 
	C1065.075073,2378.158203 1062.412598,2374.890381 1061.871460,2367.503662 
	C1061.701538,2365.184570 1061.793213,2362.845215 1061.793091,2360.515137 
	C1061.789917,2304.257080 1061.790527,2247.998779 1061.790894,2191.740723 
	C1061.790894,2190.409180 1061.776611,2189.077148 1061.804688,2187.746094 
	C1062.045288,2176.307129 1064.391602,2174.042969 1076.215576,2173.861816 
	C1078.545166,2173.825928 1080.875732,2173.853271 1084.180664,2173.851562 
M1088.655029,2299.248291 
	C1088.655029,2317.797363 1088.655029,2336.346436 1088.655029,2355.057373 
	C1106.519653,2355.057373 1123.160767,2356.257324 1139.536743,2354.688721 
	C1153.361572,2353.364502 1163.285400,2344.803955 1166.938721,2330.541504 
	C1172.406494,2309.195801 1161.352783,2290.788330 1139.886597,2285.876221 
	C1135.060181,2284.771484 1130.033203,2284.214111 1125.078857,2284.066650 
	C1115.433716,2283.779297 1105.774048,2283.907715 1096.121582,2283.987549 
	C1093.928711,2284.005615 1091.739990,2284.527344 1088.655640,2284.935303 
	C1088.655640,2289.463867 1088.655640,2293.395752 1088.655029,2299.248291 
M1088.655029,2209.331543 
	C1088.654907,2217.964600 1088.530396,2226.599854 1088.689209,2235.229980 
	C1088.850708,2244.003906 1087.903931,2252.875732 1089.520874,2262.126709 
	C1100.529419,2262.126709 1110.463867,2262.240967 1120.394897,2262.104736 
	C1146.707031,2261.743896 1161.158203,2242.430908 1154.272827,2217.148682 
	C1151.802246,2208.076904 1146.279297,2201.746826 1137.500977,2198.908691 
	C1121.733032,2193.811279 1105.620117,2196.208496 1088.655884,2196.516602 
	C1088.655884,2200.898926 1088.655884,2204.167480 1088.655029,2209.331543 
z"/>
<path fill="#FBFDFF" opacity="1.000000" stroke="none" 
	d="
M1845.371704,2381.374756 
	C1832.378296,2382.067139 1820.493042,2380.950439 1808.996094,2377.061768 
	C1792.253296,2371.398926 1780.079102,2360.466797 1773.939087,2343.894287 
	C1764.207275,2317.627686 1763.910522,2290.895996 1774.227051,2264.837646 
	C1783.622559,2241.106201 1801.924683,2227.914062 1827.483887,2225.698975 
	C1834.718262,2225.072021 1842.224609,2225.115723 1849.362915,2226.308594 
	C1871.239746,2229.964111 1886.739380,2242.321777 1893.278687,2263.608398 
	C1896.446167,2273.919678 1897.165649,2285.144531 1897.793213,2296.025146 
	C1898.332397,2305.372559 1894.800171,2308.375977 1885.058716,2308.439209 
	C1858.756104,2308.609619 1832.451782,2308.521240 1806.148193,2308.535400 
	C1802.586792,2308.537354 1799.025513,2308.535645 1795.734375,2308.535645 
	C1790.286499,2335.509277 1807.182739,2357.790039 1833.529663,2359.938477 
	C1849.090210,2361.207275 1863.974121,2358.408447 1878.476318,2352.735596 
	C1881.939331,2351.381104 1885.961548,2351.455811 1889.726562,2350.873047 
	C1890.378174,2355.329102 1891.564209,2359.787842 1891.540161,2364.240234 
	C1891.512817,2369.305908 1887.416138,2371.923584 1883.148071,2372.987549 
	C1870.927979,2376.033691 1858.582764,2378.578125 1845.371704,2381.374756 
M1871.141479,2278.169434 
	C1868.298340,2257.874756 1855.596802,2242.983154 1828.096069,2245.958008 
	C1808.306519,2248.099121 1792.691650,2268.551025 1795.434692,2289.033203 
	C1820.436035,2289.033203 1845.503540,2289.033203 1871.431885,2289.033203 
	C1871.431885,2285.589355 1871.431885,2282.701904 1871.141479,2278.169434 
z"/>
<path fill="#FBFDFF" opacity="1.000000" stroke="none" 
	d="
M1356.986328,2288.000488 
	C1356.993164,2314.996094 1357.071289,2340.991943 1356.933716,2366.986572 
	C1356.912354,2371.020020 1358.716675,2376.236572 1353.176025,2378.282715 
	C1347.386475,2380.421143 1341.259277,2380.608154 1335.716187,2377.676270 
	C1334.218018,2376.884033 1333.461182,2373.784912 1333.251953,2371.657471 
	C1332.867432,2367.748291 1333.142212,2363.774170 1333.142212,2357.289307 
	C1329.205444,2360.528564 1327.064453,2362.179932 1325.046631,2363.969482 
	C1315.669434,2372.285400 1305.356079,2378.620117 1292.703735,2380.787109 
	C1264.458008,2385.624268 1241.272339,2369.859863 1236.199341,2341.788086 
	C1234.961304,2334.936768 1234.265015,2327.898438 1234.205200,2320.938721 
	C1233.970337,2293.612061 1234.055908,2266.282227 1234.093872,2238.953613 
	C1234.108154,2228.691406 1235.160400,2227.710693 1245.511108,2227.418457 
	C1247.175537,2227.371582 1248.846924,2227.371582 1250.508423,2227.467529 
	C1259.186646,2227.968018 1260.246704,2228.914062 1260.275513,2237.511719 
	C1260.359497,2262.507080 1260.191528,2287.504150 1260.390503,2312.498047 
	C1260.445923,2319.466797 1260.862305,2326.530762 1262.093750,2333.374268 
	C1266.333374,2356.933350 1288.338501,2366.412842 1308.234497,2352.929932 
	C1315.306885,2348.136963 1321.487305,2341.775879 1327.200073,2335.352539 
	C1329.493164,2332.774658 1330.273315,2328.111084 1330.308838,2324.383301 
	C1330.568848,2297.056885 1330.464722,2269.727295 1330.477661,2242.398682 
	C1330.478882,2240.065918 1330.438843,2237.730469 1330.531006,2235.401123 
	C1330.583130,2234.082520 1330.413330,2232.422852 1331.116333,2231.515869 
	C1336.425293,2224.666260 1343.878296,2227.905518 1350.526855,2227.825684 
	C1355.702515,2227.763428 1357.035156,2231.442627 1357.003784,2236.009277 
	C1356.937500,2245.673828 1357.004395,2255.338867 1357.006470,2265.003906 
	C1357.007935,2272.335938 1356.993896,2279.668213 1356.986328,2288.000488 
z"/>
<path fill="#FAFCFF" opacity="1.000000" stroke="none" 
	d="
M1632.308105,2288.425781 
	C1632.301758,2315.674072 1632.335083,2341.976074 1632.268188,2368.278076 
	C1632.244263,2377.663330 1630.778442,2379.080566 1621.362793,2379.569092 
	C1619.703857,2379.655518 1618.028442,2379.654053 1616.372681,2379.530273 
	C1607.514648,2378.869141 1606.170776,2377.554443 1606.154297,2368.591553 
	C1606.093262,2335.297852 1606.126831,2302.004150 1606.125977,2268.710449 
	C1606.125732,2258.389404 1606.053223,2248.067627 1606.153442,2237.747559 
	C1606.241211,2228.710449 1607.371582,2227.665039 1616.641602,2227.420898 
	C1618.634888,2227.368408 1620.634033,2227.485352 1622.629028,2227.562256 
	C1627.379761,2227.744629 1630.067627,2229.906982 1629.932739,2234.981934 
	C1629.828003,2238.923584 1629.911621,2242.870117 1629.911621,2247.415771 
	C1635.195923,2246.968506 1637.257080,2243.158691 1640.061279,2240.755615 
	C1652.741699,2229.889893 1666.977173,2223.878174 1683.997192,2225.371094 
	C1705.510010,2227.258545 1720.771118,2239.604004 1725.800049,2260.700928 
	C1727.785522,2269.029785 1728.523438,2277.811279 1728.637329,2286.402344 
	C1728.998901,2313.698486 1728.844971,2341.001953 1728.792114,2368.302734 
	C1728.773560,2377.908447 1727.518066,2379.088135 1717.906372,2379.577148 
	C1716.247314,2379.661621 1714.572144,2379.655273 1712.916260,2379.531250 
	C1704.136475,2378.873291 1702.630005,2377.416016 1702.596436,2368.541260 
	C1702.507080,2344.902832 1702.586792,2321.264160 1702.543457,2297.625488 
	C1702.533081,2291.967773 1702.544189,2286.291748 1702.096313,2280.659912 
	C1701.782593,2276.713379 1701.083130,2272.710449 1699.906494,2268.934814 
	C1693.881714,2249.602295 1675.724487,2242.187012 1657.823120,2251.747070 
	C1648.249634,2256.859619 1640.370972,2264.264893 1634.496338,2273.151123 
	C1632.077393,2276.810059 1632.938599,2282.637939 1632.308105,2288.425781 
z"/>
<path fill="#FAFCFF" opacity="1.000000" stroke="none" 
	d="
M2012.019043,2231.914062 
	C2020.979736,2238.831787 2022.174072,2245.583740 2016.285034,2256.416016 
	C2013.158325,2254.929443 2009.931274,2253.494629 2006.793823,2251.884766 
	C1996.426636,2246.566162 1985.500732,2244.424072 1973.923218,2246.036133 
	C1963.785278,2247.447266 1957.265503,2252.994873 1955.452515,2261.636475 
	C1953.866333,2269.197510 1955.920166,2275.818359 1962.116211,2280.234863 
	C1967.474731,2284.054199 1973.494995,2287.047607 1979.478271,2289.863525 
	C1987.596313,2293.683350 1996.157349,2296.587402 2004.171997,2300.596680 
	C2019.114868,2308.072266 2027.640991,2319.952881 2027.034912,2337.232422 
	C2026.403198,2355.239990 2018.007446,2368.537354 2001.414062,2375.576416 
	C1979.720459,2384.779053 1957.832153,2383.512695 1936.491577,2374.039795 
	C1925.402100,2369.117188 1922.983276,2358.963135 1930.051025,2346.860596 
	C1933.452881,2348.464111 1937.053345,2349.913818 1940.415527,2351.790527 
	C1952.378540,2358.467773 1965.036499,2361.854004 1978.762817,2359.970459 
	C1988.083008,2358.691406 1996.261108,2355.321289 1999.854004,2345.644043 
	C2003.129517,2336.821289 2000.735840,2328.283691 1992.833252,2322.711182 
	C1987.994385,2319.298828 1982.465698,2316.783447 1977.051636,2314.288818 
	C1970.109131,2311.090088 1962.805298,2308.654785 1955.947021,2305.298340 
	C1935.778931,2295.427490 1927.109985,2280.021729 1930.314331,2260.494629 
	C1933.233887,2242.703613 1948.016724,2229.203125 1968.404907,2226.142822 
	C1983.168091,2223.926514 1997.617310,2225.053955 2012.019043,2231.914062 
z"/>
<path fill="#FAFCFF" opacity="1.000000" stroke="none" 
	d="
M1414.135742,2299.924316 
	C1399.545776,2289.382324 1395.166260,2275.357422 1398.229492,2259.022705 
	C1401.217163,2243.090820 1411.862427,2233.398926 1426.773926,2228.527588 
	C1443.512085,2223.059082 1460.310669,2223.863281 1476.583252,2230.575684 
	C1488.101074,2235.327148 1490.497437,2243.801025 1483.747437,2256.403564 
	C1480.917725,2255.058105 1477.991577,2253.771240 1475.160645,2252.301514 
	C1465.169434,2247.114258 1454.649414,2244.463379 1443.370605,2245.881104 
	C1440.108032,2246.291016 1436.725464,2246.932617 1433.753662,2248.262695 
	C1421.239746,2253.862793 1418.091797,2269.528809 1428.185425,2278.778076 
	C1433.195068,2283.368408 1439.770508,2286.442627 1445.993652,2289.470459 
	C1454.953491,2293.829346 1464.496338,2297.023926 1473.323486,2301.613525 
	C1486.702637,2308.569824 1494.325562,2319.471680 1494.407349,2335.195557 
	C1494.494629,2351.965088 1488.210083,2365.408691 1473.299438,2373.164062 
	C1465.525269,2377.207275 1456.489868,2379.457764 1447.757202,2380.886475 
	C1432.622070,2383.362793 1417.895142,2380.388672 1403.967041,2374.109619 
	C1394.744629,2369.951904 1390.939819,2359.996826 1394.529175,2350.791260 
	C1395.726562,2347.720459 1397.954346,2346.709961 1400.876953,2348.012451 
	C1403.905396,2349.362305 1406.782104,2351.060059 1409.693604,2352.663086 
	C1420.794556,2358.774414 1432.639160,2361.833496 1445.240723,2359.943359 
	C1450.367188,2359.174561 1455.754272,2357.537842 1460.121948,2354.838135 
	C1470.253174,2348.576660 1471.978394,2333.411621 1463.128906,2325.465576 
	C1457.828857,2320.706787 1450.962524,2317.540283 1444.488770,2314.275635 
	C1434.711182,2309.345215 1424.661621,2304.954346 1414.135742,2299.924316 
z"/>
<path fill="#FAFCFF" opacity="1.000000" stroke="none" 
	d="
M2121.813477,2296.223877 
	C2126.080566,2298.284424 2129.681396,2300.012451 2133.214355,2301.869629 
	C2163.484863,2317.780518 2158.114990,2359.313232 2133.684814,2372.510254 
	C2126.252197,2376.524902 2117.637939,2378.821289 2109.284912,2380.558838 
	C2095.252686,2383.477539 2081.416016,2381.038818 2068.096191,2376.175293 
	C2052.799316,2370.589355 2050.078613,2364.471924 2055.162842,2348.367188 
	C2059.587158,2345.904785 2062.653320,2349.314697 2065.965088,2351.161133 
	C2077.240967,2357.446289 2089.037109,2361.480469 2102.179443,2360.243164 
	C2103.835938,2360.087158 2105.510986,2360.048340 2107.148682,2359.780518 
	C2118.505371,2357.922852 2125.981201,2351.463135 2127.637207,2342.142090 
	C2129.318848,2332.674316 2125.552490,2325.366699 2114.898438,2319.595459 
	C2108.201172,2315.967529 2100.787354,2313.683350 2093.968262,2310.252930 
	C2085.693604,2306.089844 2076.824219,2302.431885 2069.767578,2296.655518 
	C2051.335449,2281.567627 2052.115967,2252.325684 2070.391846,2237.017090 
	C2090.358887,2220.291748 2124.438232,2223.323486 2140.353516,2232.847656 
	C2147.500732,2237.124512 2148.561768,2246.195312 2142.928467,2256.228271 
	C2139.778564,2254.790039 2136.483887,2253.460693 2133.350098,2251.823242 
	C2122.656006,2246.235352 2111.349365,2244.260742 2099.477295,2246.234863 
	C2087.226074,2248.271973 2080.337891,2257.284912 2081.914795,2268.736328 
	C2082.925537,2276.073730 2087.697754,2280.799805 2093.767578,2283.837402 
	C2102.674072,2288.294434 2111.979980,2291.952637 2121.813477,2296.223877 
z"/>
<path fill="#FBFDFF" opacity="1.000000" stroke="none" 
	d="
M1532.231689,2374.658447 
	C1531.998901,2328.558594 1531.924194,2283.328125 1531.939697,2238.097656 
	C1531.942749,2228.930176 1533.048340,2227.955811 1542.203857,2227.524414 
	C1556.962158,2226.829102 1558.043579,2227.847168 1558.045776,2242.604492 
	C1558.052124,2283.844971 1558.059814,2325.085205 1558.040039,2366.325684 
	C1558.034424,2378.195068 1556.279053,2379.875000 1544.088867,2379.555908 
	C1539.826782,2379.444580 1535.315918,2379.739990 1532.231689,2374.658447 
z"/>
<path fill="#FAFCFF" opacity="1.000000" stroke="none" 
	d="
M1528.697266,2182.458008 
	C1529.521362,2176.627686 1530.370728,2171.607910 1536.242676,2169.840088 
	C1543.173950,2167.753662 1550.431152,2167.027344 1556.424316,2171.420166 
	C1562.678101,2176.004150 1561.030640,2183.320557 1560.343628,2189.922119 
	C1559.727295,2195.843506 1555.788818,2198.451904 1550.422485,2199.516113 
	C1549.771606,2199.645508 1549.106445,2199.726807 1548.443970,2199.770752 
	C1531.241943,2200.916504 1528.398682,2195.010986 1528.697266,2182.458008 
z"/>
<path fill="#FFFEFC" opacity="1.000000" stroke="none" 
	d="
M1746.478760,1599.527466 
	C1730.793335,1583.151855 1715.586182,1567.299194 1700.418701,1551.408691 
	C1697.892822,1548.762451 1695.444458,1546.029907 1693.121582,1543.204590 
	C1682.468262,1530.247192 1682.581421,1515.278564 1693.343506,1504.707886 
	C1704.236816,1494.008301 1719.130737,1494.188477 1731.467285,1506.110596 
	C1744.383301,1518.592651 1756.723511,1531.678467 1769.128296,1544.679077 
	C1785.211914,1561.535156 1801.120483,1578.558472 1817.085693,1595.527344 
	C1830.691162,1609.988281 1830.601074,1624.115967 1817.009155,1638.482178 
	C1792.992065,1663.867188 1769.091309,1689.362427 1745.024170,1714.699829 
	C1739.531128,1720.482910 1733.538208,1725.789551 1727.812744,1731.353882 
	C1719.118408,1739.803101 1702.138062,1737.720703 1693.949219,1729.931885 
	C1684.349487,1720.801270 1681.693237,1705.710083 1689.776978,1695.540649 
	C1698.863159,1684.110107 1709.117065,1673.584595 1719.147461,1662.933472 
	C1732.153564,1649.122192 1745.450317,1635.584961 1758.592896,1621.901978 
	C1759.947876,1620.491455 1761.106812,1618.892578 1762.780884,1616.868286 
	C1757.383057,1611.122314 1752.176636,1605.579956 1746.478760,1599.527466 
z"/>
<path fill="#4490F2" opacity="1.000000" stroke="none" 
	d="
M1061.283447,1634.965698 
	C1047.897705,1667.679199 1016.819702,1683.102539 984.384216,1679.487793 
	C951.241333,1675.793945 926.677002,1652.100952 920.303772,1618.535034 
	C916.758423,1599.862793 917.540649,1581.420044 923.704468,1563.321167 
	C934.551758,1531.470581 963.862732,1512.523560 998.414551,1515.166016 
	C1039.022339,1518.271484 1065.137451,1546.181274 1067.788818,1588.067505 
	C1068.788696,1603.866333 1067.306274,1619.351196 1061.283447,1634.965698 
z"/>
<path fill="#4490F2" opacity="1.000000" stroke="none" 
	d="
M2088.697754,1622.808594 
	C2084.816895,1605.150513 2084.610840,1588.250977 2088.666016,1571.480469 
	C2097.209229,1536.148438 2126.684082,1513.580078 2162.311768,1514.781128 
	C2199.911133,1516.048340 2227.338135,1539.799194 2233.777832,1576.577393 
	C2236.695801,1593.240967 2236.212646,1609.764282 2231.742920,1626.081177 
	C2223.076416,1657.715942 2197.119629,1678.566406 2164.989990,1679.892212 
	C2130.670166,1681.308105 2102.652832,1662.790894 2091.372803,1631.211182 
	C2090.478027,1628.705566 2089.738525,1626.144653 2088.697754,1622.808594 
z"/>
<path fill="#4792F2" opacity="1.000000" stroke="none" 
	d="
M1088.655273,2298.288086 
	C1088.655640,2293.395752 1088.655640,2289.463867 1088.655640,2284.935303 
	C1091.739990,2284.527344 1093.928711,2284.005615 1096.121582,2283.987549 
	C1105.774048,2283.907715 1115.433716,2283.779297 1125.078857,2284.066650 
	C1130.033203,2284.214111 1135.060181,2284.771484 1139.886597,2285.876221 
	C1161.352783,2290.788330 1172.406494,2309.195801 1166.938721,2330.541504 
	C1163.285400,2344.803955 1153.361572,2353.364502 1139.536743,2354.688721 
	C1123.160767,2356.257324 1106.519653,2355.057373 1088.655029,2355.057373 
	C1088.655029,2336.346436 1088.655029,2317.797363 1088.655273,2298.288086 
z"/>
<path fill="#4792F2" opacity="1.000000" stroke="none" 
	d="
M1088.655518,2208.383789 
	C1088.655884,2204.167480 1088.655884,2200.898926 1088.655884,2196.516602 
	C1105.620117,2196.208496 1121.733032,2193.811279 1137.500977,2198.908691 
	C1146.279297,2201.746826 1151.802246,2208.076904 1154.272827,2217.148682 
	C1161.158203,2242.430908 1146.707031,2261.743896 1120.394897,2262.104736 
	C1110.463867,2262.240967 1100.529419,2262.126709 1089.520874,2262.126709 
	C1087.903931,2252.875732 1088.850708,2244.003906 1088.689209,2235.229980 
	C1088.530396,2226.599854 1088.654907,2217.964600 1088.655518,2208.383789 
z"/>
<path fill="#4792F2" opacity="1.000000" stroke="none" 
	d="
M1871.286621,2278.991943 
	C1871.431885,2282.701904 1871.431885,2285.589355 1871.431885,2289.033203 
	C1845.503540,2289.033203 1820.436035,2289.033203 1795.434692,2289.033203 
	C1792.691650,2268.551025 1808.306519,2248.099121 1828.096069,2245.958008 
	C1855.596802,2242.983154 1868.298340,2257.874756 1871.286621,2278.991943 
z"/>
</svg>