<svg version="1.1" id="Layer_1" xmlns="http://www.w3.org/2000/svg" xmlns:xlink="http://www.w3.org/1999/xlink" x="0px" y="0px"
	 width="100%" viewBox="0 0 276 257" enable-background="new 0 0 276 257" xml:space="preserve">
<path fill="#4990EE" opacity="1.000000" stroke="none" 
	d="
M162.000000,258.000000 
	C108.000008,258.000000 54.500011,258.000000 1.000014,258.000000 
	C1.000010,172.333344 1.000010,86.666702 1.000005,1.000037 
	C92.999969,1.000025 184.999939,1.000025 276.999939,1.000012 
	C276.999939,86.666626 276.999939,172.333252 276.999969,257.999939 
	C238.833328,258.000000 200.666672,258.000000 162.000000,258.000000 
M199.776291,91.156433 
	C193.700851,91.010056 196.135422,94.827393 196.331894,98.232445 
	C200.914093,98.232445 205.141678,98.232445 210.412186,98.232445 
	C205.849213,103.673477 202.091644,108.454323 197.999100,112.928795 
	C195.264954,115.918106 194.285904,119.032211 195.561935,122.993698 
	C203.796616,122.993698 212.024033,122.993698 220.195602,122.993698 
	C221.146286,116.488632 221.146301,116.484360 215.055786,116.461739 
	C212.150421,116.450951 209.244980,116.459892 204.732697,116.459892 
	C209.696808,110.605392 213.465485,105.864662 217.564484,101.429199 
	C220.364502,98.399315 221.034668,95.249161 219.642975,91.154396 
	C213.308823,91.154396 207.015457,91.154396 199.776291,91.156433 
M143.378326,99.995819 
	C143.015900,100.313484 142.340378,100.627205 142.336319,100.949379 
	C142.192154,112.396019 142.072418,123.843620 142.120636,135.290359 
	C142.123383,135.946152 143.569061,136.595871 144.343185,137.248413 
	C145.005173,136.460815 146.155090,135.721100 146.237961,134.876694 
	C146.489731,132.310669 146.329163,129.704208 146.329163,126.946335 
	C149.507309,126.678162 151.980148,126.601135 154.410614,126.239433 
	C161.371429,125.203506 166.365921,119.008278 165.834015,112.221733 
	C165.275299,105.093025 159.943176,100.019463 152.709564,99.823997 
	C149.887924,99.747757 147.061752,99.838760 143.378326,99.995819 
M64.936539,104.124863 
	C68.085968,97.360519 75.528885,95.097198 79.617638,100.229973 
	C82.628593,104.009758 84.911728,102.851395 87.903290,101.259758 
	C85.993500,93.496239 79.854874,89.769455 71.080658,90.861679 
	C62.643356,91.911957 56.790516,99.048286 56.992153,108.039719 
	C57.179459,116.391869 63.211437,123.069977 71.365410,123.952591 
	C80.086830,124.896622 86.582764,120.716263 88.303230,112.718864 
	C86.324432,112.155174 84.321526,111.584618 82.477036,111.059189 
	C78.547653,116.511574 75.062492,117.948105 70.468773,116.282906 
	C65.943932,114.642677 64.147964,111.089508 64.936539,104.124863 
M131.286423,114.141930 
	C129.881226,115.181938 128.476028,116.221947 127.070831,117.261955 
	C126.076744,115.766258 124.404449,114.347450 124.224434,112.759468 
	C123.800552,109.020088 124.088554,105.200020 124.088554,101.179932 
	C121.601494,101.179932 119.690826,101.179932 117.301331,101.179932 
	C117.301331,106.531593 116.944374,111.677872 117.410995,116.748344 
	C117.804817,121.027794 120.737808,123.787567 125.138344,123.813995 
	C129.394073,123.839554 133.654129,123.141174 138.119141,122.742302 
	C138.119141,115.651688 138.119141,108.550537 138.119141,101.188492 
	C135.965515,101.188492 134.030228,101.188492 131.408981,101.188492 
	C131.408981,105.314812 131.408981,109.266693 131.286423,114.141930 
M170.142029,106.952820 
	C168.236740,111.861305 168.678070,116.467354 172.326538,120.391327 
	C175.542831,123.850494 179.681030,124.781433 184.197586,123.661835 
	C189.332352,122.388992 192.683701,118.162041 192.986893,112.870903 
	C193.305664,107.308197 190.255569,102.663330 185.130951,100.907379 
	C179.494843,98.976181 174.646515,100.754227 170.142029,106.952820 
M113.835419,109.985992 
	C111.694847,103.413902 108.071411,100.322769 102.329979,100.170761 
	C97.329651,100.038376 92.702866,102.955833 90.966934,107.523460 
	C89.161514,112.273949 89.843254,116.686020 93.357964,120.449860 
	C96.711731,124.041328 102.054832,125.102104 106.630592,123.118950 
	C112.004509,120.789856 114.256950,116.536430 113.835419,109.985992 
M83.896439,170.566971 
	C88.603409,165.961853 88.461922,162.624512 84.591415,158.586319 
	C84.591415,154.207016 85.751236,150.406815 84.361206,148.249832 
	C80.983582,143.008514 75.210350,145.465927 70.007675,145.084290 
	C70.007675,154.272705 70.007675,162.941940 70.007675,172.468552 
	C74.749130,171.918182 78.959091,171.429520 83.896439,170.566971 
M176.194382,171.854614 
	C177.176544,171.084900 178.158707,170.315170 180.086121,168.804642 
	C167.164459,169.379776 167.164459,169.379776 166.567810,162.944122 
	C169.904388,162.944122 173.207626,162.904953 176.509430,162.956451 
	C179.174957,162.998016 180.045181,161.697159 179.636261,159.194336 
	C179.017197,155.405411 177.212204,152.597427 173.196823,152.002670 
	C169.097794,151.395508 164.850601,152.294769 163.857666,156.583008 
	C162.956467,160.475052 162.890640,165.254974 164.391144,168.831909 
	C166.244461,173.249908 171.254257,172.538025 176.194382,171.854614 
M104.995079,154.029541 
	C104.981285,157.191437 105.612656,160.546539 104.742538,163.451996 
	C104.087006,165.640900 101.773643,168.376083 99.722794,168.862152 
	C96.576073,169.607971 95.940903,166.485992 95.911781,163.809326 
	C95.877388,160.647720 96.009445,157.475815 95.771286,154.330948 
	C95.712387,153.553146 94.501518,152.862579 93.820190,152.131927 
	C93.272758,152.820999 92.258835,153.506821 92.254028,154.199661 
	C92.224052,158.513641 92.060341,162.878464 92.642914,167.130264 
	C93.218369,171.330078 96.321053,172.768127 100.391548,172.170578 
	C102.784325,171.819321 105.176064,171.461014 108.391289,170.983688 
	C108.391289,165.863739 108.442505,159.941177 108.251755,154.026413 
	C108.241371,153.704437 106.209511,153.447662 104.995079,154.029541 
M153.957214,163.661774 
	C153.957214,166.393982 153.957214,169.126205 153.957214,171.858414 
	C154.382446,172.014008 154.807678,172.169601 155.232910,172.325180 
	C155.929886,171.689835 157.219666,171.063004 157.228928,170.417801 
	C157.295563,165.768417 157.492477,161.062363 156.869949,156.479996 
	C156.363846,152.754623 153.309631,151.521774 149.701904,151.975052 
	C147.056442,152.307434 144.421494,152.723358 141.157608,153.191605 
	C141.157608,158.288437 141.102722,164.072174 141.227905,169.852005 
	C141.243347,170.564758 142.219147,171.256714 142.749924,171.958298 
	C143.427200,171.230591 144.611237,170.553101 144.689240,169.765991 
	C144.950912,167.125626 144.937027,164.440353 144.807358,161.783066 
	C144.625885,158.064438 146.051483,155.313080 149.859497,155.142365 
	C153.881699,154.962036 153.762772,158.404297 153.948120,161.249207 
	C153.980530,161.746826 153.955490,162.248169 153.957214,163.661774 
M118.011856,152.089996 
	C116.624550,153.914413 114.081802,155.794189 114.165848,157.548080 
	C114.254868,159.405716 116.756401,161.226669 118.379448,162.892975 
	C119.027687,163.558472 120.369781,163.559937 120.992424,164.235611 
	C121.805168,165.117554 122.871468,166.561859 122.621780,167.408127 
	C122.359970,168.295517 120.684723,169.271194 119.601685,169.301712 
	C117.588432,169.358459 115.556625,168.756805 113.167809,168.370224 
	C114.068436,172.720825 117.313995,172.767624 119.766403,172.117599 
	C122.160110,171.483170 124.940643,169.797195 126.043739,167.757507 
	C126.692917,166.557114 124.747116,163.494690 123.352196,161.767441 
	C121.730042,159.758820 119.433937,158.294510 117.430328,156.593979 
	C120.022423,155.880020 122.614517,155.166061 125.462845,154.381516 
	C124.551956,150.970840 121.403267,152.090332 118.011856,152.089996 
M188.138275,158.769577 
	C188.031067,157.848938 187.745041,156.144440 187.842789,156.122147 
	C190.373962,155.544662 192.945084,155.142242 195.786057,154.662827 
	C194.462555,151.122833 191.281662,151.438919 188.857224,152.165390 
	C186.982208,152.727219 184.413956,154.804031 184.285294,156.381226 
	C184.129913,158.285995 186.022797,160.532776 187.427444,162.318176 
	C188.160751,163.250275 189.928513,163.301071 190.897171,164.135284 
	C191.787582,164.902115 193.010529,166.668869 192.715912,167.142838 
	C192.062759,168.193558 190.580719,169.249069 189.379822,169.318436 
	C187.538040,169.424835 185.648422,168.702454 183.216965,168.220352 
	C184.496521,173.035614 188.005600,172.789719 190.718384,172.006592 
	C192.910202,171.373901 195.839066,169.350342 196.211609,167.495926 
	C196.566757,165.728043 194.251663,163.200104 192.693970,161.358597 
	C191.813049,160.317200 190.093491,159.985199 188.138275,158.769577 
M208.143494,154.765793 
	C209.437668,154.959991 210.731857,155.154175 212.653687,155.442551 
	C210.909836,150.974411 207.675735,151.469925 205.312515,152.223297 
	C203.477493,152.808289 201.178055,154.968491 200.942581,156.683578 
	C200.708679,158.387222 202.590485,160.577469 203.944122,162.226196 
	C204.703171,163.150711 206.485367,163.178009 207.417267,164.033615 
	C208.379410,164.916946 208.869598,166.314331 209.566269,167.486832 
	C208.329788,168.137497 207.115402,169.266220 205.851532,169.324661 
	C204.040604,169.408432 202.193527,168.710770 199.889206,168.252808 
	C201.103088,172.912308 204.500900,172.718140 207.109283,172.027557 
	C209.323120,171.441452 212.289474,169.580429 212.761566,167.731613 
	C213.202698,166.004120 210.967468,163.432068 209.571030,161.473541 
	C208.989288,160.657639 207.379623,160.652039 206.508362,159.944336 
	C205.552597,159.168015 204.909332,158.006989 204.129883,157.013596 
	C205.212906,156.244934 206.295944,155.476288 208.143494,154.765793 
M134.836899,153.170670 
	C132.262466,150.841309 131.417465,152.347473 131.360107,154.872864 
	C131.254807,159.509369 131.195770,164.155884 131.414520,168.784195 
	C131.466507,169.884186 132.692123,170.928711 133.377914,171.998749 
	C133.924698,170.821518 134.900848,169.659378 134.942825,168.464417 
	C135.111343,163.666443 134.990555,158.858307 134.836899,153.170670 
z"/>
<path fill="#FAFCFE" opacity="1.000000" stroke="none" 
	d="
M200.249176,91.155411 
	C207.015457,91.154396 213.308823,91.154396 219.642975,91.154396 
	C221.034668,95.249161 220.364502,98.399315 217.564484,101.429199 
	C213.465485,105.864662 209.696808,110.605392 204.732697,116.459892 
	C209.244980,116.459892 212.150421,116.450951 215.055786,116.461739 
	C221.146301,116.484360 221.146286,116.488632 220.195602,122.993698 
	C212.024033,122.993698 203.796616,122.993698 195.561935,122.993698 
	C194.285904,119.032211 195.264954,115.918106 197.999100,112.928795 
	C202.091644,108.454323 205.849213,103.673477 210.412186,98.232445 
	C205.141678,98.232445 200.914093,98.232445 196.331894,98.232445 
	C196.135422,94.827393 193.700851,91.010056 200.249176,91.155411 
z"/>
<path fill="#F6BB34" opacity="1.000000" stroke="none" 
	d="
M143.807983,99.924698 
	C147.061752,99.838760 149.887924,99.747757 152.709564,99.823997 
	C159.943176,100.019463 165.275299,105.093025 165.834015,112.221733 
	C166.365921,119.008278 161.371429,125.203506 154.410614,126.239433 
	C151.980148,126.601135 149.507309,126.678162 146.329163,126.946335 
	C146.329163,129.704208 146.489731,132.310669 146.237961,134.876694 
	C146.155090,135.721100 145.005173,136.460815 144.343185,137.248413 
	C143.569061,136.595871 142.123383,135.946152 142.120636,135.290359 
	C142.072418,123.843620 142.192154,112.396019 142.336319,100.949379 
	C142.340378,100.627205 143.015900,100.313484 143.807983,99.924698 
M149.095413,106.601738 
	C150.608231,108.862335 152.121048,111.122940 153.544693,113.250282 
	C153.317993,113.688545 153.247665,113.839661 153.164383,113.983269 
	C151.932602,116.107269 150.699081,118.230263 149.465973,120.353485 
	C151.643356,119.050156 154.130569,118.060585 155.884689,116.328590 
	C156.977905,115.249161 157.852692,112.009796 157.292252,111.529739 
	C154.860291,109.446564 154.275223,104.429832 149.095413,106.601738 
z"/>
<path fill="#F9FCFE" opacity="1.000000" stroke="none" 
	d="
M64.838181,104.536743 
	C64.147964,111.089508 65.943932,114.642677 70.468773,116.282906 
	C75.062492,117.948105 78.547653,116.511574 82.477036,111.059189 
	C84.321526,111.584618 86.324432,112.155174 88.303230,112.718864 
	C86.582764,120.716263 80.086830,124.896622 71.365410,123.952591 
	C63.211437,123.069977 57.179459,116.391869 56.992153,108.039719 
	C56.790516,99.048286 62.643356,91.911957 71.080658,90.861679 
	C79.854874,89.769455 85.993500,93.496239 87.903290,101.259758 
	C84.911728,102.851395 82.628593,104.009758 79.617638,100.229973 
	C75.528885,95.097198 68.085968,97.360519 64.838181,104.536743 
z"/>
<path fill="#FAFCFE" opacity="1.000000" stroke="none" 
	d="
M131.347702,113.680252 
	C131.408981,109.266693 131.408981,105.314812 131.408981,101.188492 
	C134.030228,101.188492 135.965515,101.188492 138.119141,101.188492 
	C138.119141,108.550537 138.119141,115.651688 138.119141,122.742302 
	C133.654129,123.141174 129.394073,123.839554 125.138344,123.813995 
	C120.737808,123.787567 117.804817,121.027794 117.410995,116.748344 
	C116.944374,111.677872 117.301331,106.531593 117.301331,101.179932 
	C119.690826,101.179932 121.601494,101.179932 124.088554,101.179932 
	C124.088554,105.200020 123.800552,109.020088 124.224434,112.759468 
	C124.404449,114.347450 126.076744,115.766258 127.070831,117.261955 
	C128.476028,116.221947 129.881226,115.181938 131.347702,113.680252 
z"/>
<path fill="#F9FBFE" opacity="1.000000" stroke="none" 
	d="
M170.325500,106.611282 
	C174.646515,100.754227 179.494843,98.976181 185.130951,100.907379 
	C190.255569,102.663330 193.305664,107.308197 192.986893,112.870903 
	C192.683701,118.162041 189.332352,122.388992 184.197586,123.661835 
	C179.681030,124.781433 175.542831,123.850494 172.326538,120.391327 
	C168.678070,116.467354 168.236740,111.861305 170.325500,106.611282 
M184.203049,116.585030 
	C187.192413,111.784050 186.235870,107.231514 181.960754,106.927444 
	C180.295990,106.809029 177.570358,107.801308 177.023804,109.037460 
	C176.226212,110.841377 176.144180,114.025345 177.262833,115.320816 
	C178.437485,116.681129 181.387466,116.508423 184.203049,116.585030 
z"/>
<path fill="#F9FBFE" opacity="1.000000" stroke="none" 
	d="
M113.884872,110.389961 
	C114.256950,116.536430 112.004509,120.789856 106.630592,123.118950 
	C102.054832,125.102104 96.711731,124.041328 93.357964,120.449860 
	C89.843254,116.686020 89.161514,112.273949 90.966934,107.523460 
	C92.702866,102.955833 97.329651,100.038376 102.329979,100.170761 
	C108.071411,100.322769 111.694847,103.413902 113.884872,110.389961 
M99.468445,116.987465 
	C102.572296,118.566666 105.382706,117.735069 106.337952,114.659904 
	C106.949402,112.691467 106.385323,109.521019 105.058495,108.063652 
	C104.074089,106.982391 99.671867,107.013092 99.153015,107.911690 
	C97.964973,109.969276 98.181870,112.857681 97.940758,115.419304 
	C97.908173,115.765457 98.523453,116.172585 99.468445,116.987465 
z"/>
<path fill="#F6F9FE" opacity="1.000000" stroke="none" 
	d="
M83.532745,170.753906 
	C78.959091,171.429520 74.749130,171.918182 70.007675,172.468552 
	C70.007675,162.941940 70.007675,154.272705 70.007675,145.084290 
	C75.210350,145.465927 80.983582,143.008514 84.361206,148.249832 
	C85.751236,150.406815 84.591415,154.207016 84.591415,158.586319 
	C88.461922,162.624512 88.603409,165.961853 83.532745,170.753906 
M79.994171,159.957870 
	C77.891571,159.957870 75.788979,159.957870 73.416077,159.957870 
	C73.416077,163.083633 73.416077,165.806580 73.416077,169.947342 
	C76.997696,168.706589 80.089302,168.011581 82.630409,166.431335 
	C83.126060,166.123093 81.483444,162.376434 79.994171,159.957870 
M81.543175,153.956863 
	C81.644753,148.197205 79.795044,147.028427 73.512314,148.785400 
	C73.512314,151.368866 73.512314,153.914413 73.512314,157.743179 
	C76.601601,156.491211 78.882858,155.566696 81.543175,153.956863 
z"/>
<path fill="#F0F6FE" opacity="1.000000" stroke="none" 
	d="
M175.822464,171.928650 
	C171.254257,172.538025 166.244461,173.249908 164.391144,168.831909 
	C162.890640,165.254974 162.956467,160.475052 163.857666,156.583008 
	C164.850601,152.294769 169.097794,151.395508 173.196823,152.002670 
	C177.212204,152.597427 179.017197,155.405411 179.636261,159.194336 
	C180.045181,161.697159 179.174957,162.998016 176.509430,162.956451 
	C173.207626,162.904953 169.904388,162.944122 166.567810,162.944122 
	C167.164459,169.379776 167.164459,169.379776 180.086121,168.804642 
	C178.158707,170.315170 177.176544,171.084900 175.822464,171.928650 
M175.480743,157.161652 
	C171.224487,153.129944 168.031296,153.994202 166.474533,160.028397 
	C168.539398,160.028397 170.533157,160.277649 172.421066,159.938217 
	C173.621216,159.722443 174.664154,158.632309 175.480743,157.161652 
z"/>
<path fill="#F0F6FE" opacity="1.000000" stroke="none" 
	d="
M105.056854,153.595047 
	C106.209511,153.447662 108.241371,153.704437 108.251755,154.026413 
	C108.442505,159.941177 108.391289,165.863739 108.391289,170.983688 
	C105.176064,171.461014 102.784325,171.819321 100.391548,172.170578 
	C96.321053,172.768127 93.218369,171.330078 92.642914,167.130264 
	C92.060341,162.878464 92.224052,158.513641 92.254028,154.199661 
	C92.258835,153.506821 93.272758,152.820999 93.820190,152.131927 
	C94.501518,152.862579 95.712387,153.553146 95.771286,154.330948 
	C96.009445,157.475815 95.877388,160.647720 95.911781,163.809326 
	C95.940903,166.485992 96.576073,169.607971 99.722794,168.862152 
	C101.773643,168.376083 104.087006,165.640900 104.742538,163.451996 
	C105.612656,160.546539 104.981285,157.191437 105.056854,153.595047 
z"/>
<path fill="#EFF6FD" opacity="1.000000" stroke="none" 
	d="
M153.957092,163.204788 
	C153.955490,162.248169 153.980530,161.746826 153.948120,161.249207 
	C153.762772,158.404297 153.881699,154.962036 149.859497,155.142365 
	C146.051483,155.313080 144.625885,158.064438 144.807358,161.783066 
	C144.937027,164.440353 144.950912,167.125626 144.689240,169.765991 
	C144.611237,170.553101 143.427200,171.230591 142.749924,171.958298 
	C142.219147,171.256714 141.243347,170.564758 141.227905,169.852005 
	C141.102722,164.072174 141.157608,158.288437 141.157608,153.191605 
	C144.421494,152.723358 147.056442,152.307434 149.701904,151.975052 
	C153.309631,151.521774 156.363846,152.754623 156.869949,156.479996 
	C157.492477,161.062363 157.295563,165.768417 157.228928,170.417801 
	C157.219666,171.063004 155.929886,171.689835 155.232910,172.325180 
	C154.807678,172.169601 154.382446,172.014008 153.957214,171.858414 
	C153.957214,169.126205 153.957214,166.393982 153.957092,163.204788 
z"/>
<path fill="#EDF4FD" opacity="1.000000" stroke="none" 
	d="
M118.419525,152.026428 
	C121.403267,152.090332 124.551956,150.970840 125.462845,154.381516 
	C122.614517,155.166061 120.022423,155.880020 117.430328,156.593964 
	C119.433937,158.294510 121.730042,159.758820 123.352196,161.767441 
	C124.747116,163.494690 126.692917,166.557114 126.043739,167.757507 
	C124.940643,169.797195 122.160110,171.483170 119.766403,172.117599 
	C117.313995,172.767624 114.068436,172.720825 113.167809,168.370224 
	C115.556625,168.756805 117.588432,169.358459 119.601685,169.301712 
	C120.684723,169.271194 122.359970,168.295517 122.621780,167.408127 
	C122.871468,166.561859 121.805168,165.117554 120.992424,164.235611 
	C120.369781,163.559937 119.027687,163.558472 118.379448,162.892975 
	C116.756401,161.226669 114.254868,159.405716 114.165848,157.548080 
	C114.081802,155.794189 116.624550,153.914413 118.419525,152.026428 
z"/>
<path fill="#EDF4FD" opacity="1.000000" stroke="none" 
	d="
M188.444977,159.051605 
	C190.093491,159.985199 191.813049,160.317200 192.693970,161.358597 
	C194.251663,163.200104 196.566757,165.728043 196.211609,167.495926 
	C195.839066,169.350342 192.910202,171.373901 190.718384,172.006592 
	C188.005600,172.789719 184.496521,173.035614 183.216965,168.220352 
	C185.648422,168.702454 187.538040,169.424835 189.379822,169.318436 
	C190.580719,169.249069 192.062759,168.193558 192.715912,167.142838 
	C193.010529,166.668869 191.787582,164.902115 190.897171,164.135284 
	C189.928513,163.301071 188.160751,163.250275 187.427444,162.318176 
	C186.022797,160.532776 184.129913,158.285995 184.285294,156.381226 
	C184.413956,154.804031 186.982208,152.727219 188.857224,152.165390 
	C191.281662,151.438919 194.462555,151.122833 195.786057,154.662827 
	C192.945084,155.142242 190.373962,155.544662 187.842789,156.122147 
	C187.745041,156.144440 188.031067,157.848938 188.444977,159.051605 
z"/>
<path fill="#F3F8FE" opacity="1.000000" stroke="none" 
	d="
M207.761230,154.736725 
	C206.295944,155.476288 205.212906,156.244934 204.129883,157.013596 
	C204.909332,158.006989 205.552597,159.168015 206.508362,159.944336 
	C207.379623,160.652039 208.989288,160.657639 209.571030,161.473541 
	C210.967468,163.432068 213.202698,166.004120 212.761566,167.731613 
	C212.289474,169.580429 209.323120,171.441452 207.109283,172.027557 
	C204.500900,172.718140 201.103088,172.912308 199.889206,168.252808 
	C202.193527,168.710770 204.040604,169.408432 205.851532,169.324661 
	C207.115402,169.266220 208.329788,168.137497 209.566269,167.486832 
	C208.869598,166.314331 208.379410,164.916946 207.417267,164.033615 
	C206.485367,163.178009 204.703171,163.150711 203.944122,162.226196 
	C202.590485,160.577469 200.708679,158.387222 200.942581,156.683578 
	C201.178055,154.968491 203.477493,152.808289 205.312515,152.223297 
	C207.675735,151.469925 210.909836,150.974411 212.653687,155.442551 
	C210.731857,155.154175 209.437668,154.959991 207.761230,154.736725 
z"/>
<path fill="#E4EEFC" opacity="1.000000" stroke="none" 
	d="
M134.906799,153.612305 
	C134.990555,158.858307 135.111343,163.666443 134.942825,168.464417 
	C134.900848,169.659378 133.924698,170.821518 133.377914,171.998749 
	C132.692123,170.928711 131.466507,169.884186 131.414520,168.784195 
	C131.195770,164.155884 131.254807,159.509369 131.360107,154.872864 
	C131.417465,152.347473 132.262466,150.841309 134.906799,153.612305 
z"/>
<path fill="#FFFCF4" opacity="1.000000" stroke="none" 
	d="
M149.229523,106.263596 
	C154.275223,104.429832 154.860291,109.446564 157.292252,111.529739 
	C157.852692,112.009796 156.977905,115.249161 155.884689,116.328590 
	C154.130569,118.060585 151.643356,119.050156 149.465973,120.353485 
	C150.699081,118.230263 151.932602,116.107269 153.164383,113.983269 
	C153.247665,113.839661 153.317993,113.688545 153.544693,113.250282 
	C152.121048,111.122940 150.608231,108.862335 149.229523,106.263596 
z"/>
<path fill="#5095EF" opacity="1.000000" stroke="none" 
	d="
M183.882324,116.795349 
	C181.387466,116.508423 178.437485,116.681129 177.262833,115.320816 
	C176.144180,114.025345 176.226212,110.841377 177.023804,109.037460 
	C177.570358,107.801308 180.295990,106.809029 181.960754,106.927444 
	C186.235870,107.231514 187.192413,111.784050 183.882324,116.795349 
z"/>
<path fill="#5095EF" opacity="1.000000" stroke="none" 
	d="
M99.153595,116.769470 
	C98.523453,116.172585 97.908173,115.765457 97.940758,115.419304 
	C98.181870,112.857681 97.964973,109.969276 99.153015,107.911690 
	C99.671867,107.013092 104.074089,106.982391 105.058495,108.063652 
	C106.385323,109.521019 106.949402,112.691467 106.337952,114.659904 
	C105.382706,117.735069 102.572296,118.566666 99.153595,116.769470 
z"/>
<path fill="#4D93EE" opacity="1.000000" stroke="none" 
	d="
M80.410629,160.086792 
	C81.483444,162.376434 83.126060,166.123093 82.630409,166.431335 
	C80.089302,168.011581 76.997696,168.706589 73.416077,169.947342 
	C73.416077,165.806580 73.416077,163.083633 73.416077,159.957870 
	C75.788979,159.957870 77.891571,159.957870 80.410629,160.086792 
z"/>
<path fill="#5497EF" opacity="1.000000" stroke="none" 
	d="
M81.353638,154.299530 
	C78.882858,155.566696 76.601601,156.491211 73.512314,157.743179 
	C73.512314,153.914413 73.512314,151.368866 73.512314,148.785400 
	C79.795044,147.028427 81.644753,148.197205 81.353638,154.299530 
z"/>
<path fill="#4D93EE" opacity="1.000000" stroke="none" 
	d="
M175.629166,157.547943 
	C174.664154,158.632309 173.621216,159.722443 172.421066,159.938217 
	C170.533157,160.277649 168.539398,160.028397 166.474533,160.028397 
	C168.031296,153.994202 171.224487,153.129944 175.629166,157.547943 
z"/>
</svg>